<?xml version="1.0" encoding="UTF-8"?>
<svg id="a" data-name="Capa 1" xmlns="http://www.w3.org/2000/svg" viewBox="0 0 1074.15 717.05">
  <ellipse cx="523.45" cy="306.85" rx="523.45" ry="306.85" fill="#99e0e0"/>
  <ellipse cx="550.7" cy="311.75" rx="523.45" ry="306.85" fill="#60bec3"/>
  <path d="M533.43,618.59l252.03,98.46-34.87-121.64s-110.95-147.03-217.16,23.19Z" fill="#60bec3"/>
  <rect x="222.27" y="212.94" width="688.73" height="250.01" rx="5.45" ry="5.45" fill="none" stroke="#fff" stroke-miterlimit="10" stroke-width="2"/>
  <circle cx="428.66" cy="334.38" r="45.84" fill="#fff"/>
  <circle cx="979.33" cy="187.9" r="15.32" fill="#fff"/>
  <circle cx="51.06" cy="333.1" r="15.32" fill="#fff"/>
  <circle cx="694.8" cy="337.94" r="45.84" fill="#fff"/>
  <circle cx="175.02" cy="334.38" r="52.07" fill="#fff"/>
  <circle cx="959.08" cy="334.38" r="52.07" fill="#fff"/>
  <rect x="175.02" y="267.97" width="52.07" height="139.94" fill="#fff"/>
  <rect x="904.14" y="267.97" width="52.07" height="139.94" fill="#fff"/>
  <rect x="505.33" y="398.17" width="102.62" height="6.46" fill="#fff"/>
  <rect x="505.33" y="383.22" width="102.62" height="6.46" fill="#fff"/>
  <rect x="505.33" y="413.11" width="102.62" height="6.46" fill="#fff"/>
  <rect x="505.33" y="428.06" width="102.62" height="6.46" fill="#fff"/>
  <rect x="518.52" y="379.85" width="73.93" height="56.85" transform="translate(963.76 -147.2) rotate(90)" fill="#fff"/>
  <rect x="928.02" y="235.98" width="102.62" height="6.46" transform="translate(1218.54 -740.12) rotate(90)" fill="#fff"/>
  <rect x="51.06" y="329.87" width="102.62" height="6.46" fill="#fff"/>
  <g>
    <path d="M286.7,103.13c22.29-5.03,44.68-9.39,67.15-13.08,28.67-4.58,36.72-1.77,38.75,11.62,1.59,10.53-5.01,15.46-25.47,19.99.06.32.11.64.17.97.74-.13,1.48-.26,2.21-.39,21.77-3.69,28.4-.8,30.29,11.87,2.09,14.04-4.85,19.17-30.42,24.17-22.05,4.37-44,9.43-65.8,15.17-5.63-23.43-11.25-46.87-16.88-70.3ZM355.3,118.99c-.52-2.8-1.04-5.6-1.57-8.4-8.72,1.55-17.43,3.21-26.12,4.96.59,2.82,1.18,5.65,1.77,8.47,8.62-1.78,17.26-3.46,25.92-5.04ZM360.8,141.91c-.64-3.44-1.28-6.89-1.92-10.33-8.95,1.68-17.89,3.48-26.8,5.38.73,3.48,1.45,6.95,2.18,10.43,8.83-1.93,17.68-3.76,26.54-5.48Z" fill="#fff"/>
    <path d="M405.86,88.92c14.34-1.75,28.7-3.23,43.08-4.44.37,6.41.75,12.82,1.14,19.23,4.52-6.88,9.13-13.67,13.83-20.39,10.02-.71,20.05-1.29,30.08-1.74.79,11.98,1.58,23.95,2.37,35.93-14.31.92-28.6,2.11-42.88,3.57.81,7.87,1.63,15.74,2.44,23.61-13.85,1.6-27.66,3.48-41.45,5.61-2.87-20.46-5.74-40.93-8.62-61.39Z" fill="#fff"/>
    <path d="M509.24,62.25c15.32-.32,30.64-.34,45.95-.06.34,25.18.69,50.36,1.03,75.54-14.32.34-28.64.95-42.94,1.85-1.35-25.78-2.7-51.55-4.05-77.33Z" fill="#fff"/>
    <path d="M602.23,63.99c24.79,1.45,49.54,3.69,74.2,6.72,10.07,24.92,19.4,49.45,28.02,73.57-15.35-1.73-30.72-3.13-46.11-4.2-1.36-3.32-2.74-6.65-4.13-9.99-12.33-.88-24.67-1.55-37.01-2.02-1.78,3.24-3.54,6.49-5.28,9.76-15.4-.42-30.81-.52-46.2-.29,11.39-25.21,23.58-49.74,36.52-73.55ZM645.8,110.33c-2.3-5.26-4.63-10.54-7-15.84-.7-.05-1.4-.11-2.1-.16-2.97,4.9-5.91,9.84-8.81,14.81,5.97.35,11.94.74,17.91,1.18Z" fill="#fff"/>
    <path d="M777.85,132.03c-6.92-1.33-13.84-2.6-20.78-3.81-1.32,7.55-2.63,15.1-3.95,22.65-13.83-2.19-27.7-4.1-41.58-5.76,2.28-17.21,4.56-34.41,6.84-51.62,14.27,2.17,28.51,4.61,42.71,7.31-1.21,5.23-2.41,10.47-3.61,15.71,6.18-4.84,12.43-9.57,18.76-14.19,5.74.75,10.82,1.63,15.24,2.61,26.31,5.9,33.8,14.16,29.11,33.44-1.93,8.02-3.85,16.04-5.78,24.07-13.73-2.98-27.51-5.7-41.31-8.15,1.45-7.42,2.9-14.84,4.35-22.26Z" fill="#fff"/>
  </g>
  <g>
    <path d="M785.35,608.82c1.04,1.95,2.09,3.91,3.15,5.85.08.14.15.25.19.33.12.2.25.27.41.23.08-.02.25-.23.49-.6.85-1.35,2.13-2.26,3.83-2.75,1.69-.49,3.46-.43,5.34.17,2.36.76,4.15,2.13,5.38,4.11,1.76,2.83,1.89,5.49.34,7.99-1.11,1.8-2.95,3.09-5.51,3.85-1.27.37-2.5.58-3.69.61-1.19.03-2.58-.09-4.19-.38-.24-.04-.41-.04-.52,0-.14.04-.46.24-.97.6-.26.19-.61.34-1.04.46-.76.21-1.27.12-1.51-.28-.08-.13-.14-.29-.18-.47-.14-.71-.46-1.55-.95-2.53-.49-.97-1.35-2.49-2.58-4.56-.81-1.37-1.62-2.74-2.42-4.12-.6-1.03-1.02-1.66-1.27-1.89-.25-.23-.64-.37-1.18-.4-.76-.05-1.33-.16-1.69-.31-.37-.15-.65-.39-.83-.72-.38-.67.12-1.55,1.5-2.64.76-.59,1.77-1.19,3.04-1.83,1.27-.63,2.4-1.09,3.4-1.36.64-.18,1.12.04,1.46.63ZM792.24,617.42c-.66.19-1.02.5-1.09.95-.06.34.16.94.67,1.78,1.4,2.32,2.46,3.85,3.15,4.59.63.7,1.38.92,2.25.67.89-.26,1.38-.76,1.46-1.51.08-.74-.23-1.69-.95-2.85-1.05-1.71-2.2-2.84-3.45-3.4-.72-.32-1.4-.4-2.05-.24Z" fill="#60bec3"/>
    <path d="M822.56,611.21c.35,2,.71,4,1.07,6,.27,1.49.39,2.74.34,3.76-.04,1.02-.25,1.94-.62,2.77-.76,1.71-2.23,2.94-4.43,3.66-1.78.59-3.48.68-5.08.29-1.24-.3-2.15-.91-2.73-1.81-.48-.74-.59-1.47-.32-2.16.27-.7.84-1.18,1.7-1.46.86-.28,1.71-.27,2.54.02.39.13.68.26.87.4.19.14.55.46,1.09.96.41.38.85.49,1.32.34.37-.12.6-.36.68-.7.08-.34,0-.71-.26-1.09-.3-.45-1.1-1.1-2.41-1.96-3.04-1.99-6.06-4.01-9.05-6.05-.94-.63-1.58-1.01-1.93-1.14-.35-.12-1-.21-1.95-.25-.29,0-.59-.09-.9-.27-.32-.18-.54-.37-.67-.59-.53-.87.17-1.78,2.08-2.74,1.28-.64,2.81-1.24,4.6-1.81,1.25-.4,2.3-.61,3.15-.63,1.14-.03,1.92.29,2.34.96.15.24.19.57.13.99-.07.39-.02.71.13.95.15.23.36.45.64.66.28.21.81.55,1.59,1.01.88.52,1.49.73,1.83.61.37-.12.55-.54.56-1.26,0-.72-.16-1.35-.51-1.9-.28-.44-.66-.75-1.13-.93-.72-.28-1.18-.58-1.37-.89-.31-.49-.16-1.01.46-1.57.61-.56,1.59-1.06,2.92-1.52,2.47-.84,4.01-.79,4.63.19.23.35.28.68.17.98-.11.3-.44.66-.98,1.09-.45.37-.71.81-.78,1.32-.1.82-.01,2.08.27,3.78Z" fill="#60bec3"/>
    <path d="M839.06,589.59c1.16-.45,2.83-.79,5.01-1.06.26-.03.46-.08.59-.13.11-.04.39-.26.84-.65.14-.13.31-.23.51-.31.75-.3,1.86-.12,3.35.52,1.49.65,2.53,1.41,3.14,2.3.35.52.46,1.03.33,1.54-.13.51-.46.87-1,1.09-.45.18-.86.25-1.24.22-.38-.03-1.3-.22-2.74-.58-2.05-.5-3.72-.5-5.02,0-.63.25-1.05.57-1.26.97-.21.4-.18.8.09,1.22.54.81,1.82,1.09,3.82.82,2.72-.35,4.48-.54,5.31-.55,3.65-.01,6.23,1.07,7.79,3.28,1.38,1.96,1.55,3.96.47,6.02-1.1,2.1-3.28,3.83-6.56,5.14-1.46.59-3.11,1.06-4.94,1.41-1.83.35-3.25.47-4.24.37-.76-.09-1.71-.55-2.84-1.39-1.13-.84-2.02-1.74-2.67-2.7-.31-.46-.43-.85-.36-1.17.09-.41.35-.69.78-.86.44-.16.98-.14,1.63.07.38.12,1.39.56,3.05,1.33.78.36,1.76.54,2.92.52,1.16-.01,2.23-.22,3.21-.61.84-.33,1.44-.73,1.79-1.2.34-.47.38-.89.1-1.29-.26-.37-.68-.61-1.28-.72-.6-.11-1.43-.09-2.52.04-1.92.22-3.42.32-4.52.3-1.09-.02-2.2-.16-3.3-.41-2.69-.63-4.59-1.79-5.69-3.47-.54-.83-.84-1.73-.88-2.69-.04-.96.18-1.89.66-2.78,1.05-2.04,2.95-3.57,5.67-4.62Z" fill="#60bec3"/>
    <path d="M875.33,591.17c-2.57,1.17-5.15,2.33-7.74,3.47-.34.15-.43.35-.25.59.43.59,1.22.98,2.38,1.15,1.16.18,2.19.07,3.08-.34.53-.24,1.05-.58,1.57-1.04.52-.46.9-.9,1.14-1.34.21-.39.43-.63.65-.73.28-.13.67-.11,1.15.05.49.16.84.4,1.07.7.48.65.46,1.5-.08,2.55-.95,1.87-2.57,3.33-4.88,4.36-2.33,1.04-4.7,1.35-7.1.92-1.17-.21-2.28-.6-3.34-1.17-1.4-.75-2.51-1.7-3.32-2.85-1.09-1.54-1.49-3.17-1.21-4.88.23-1.48.93-2.8,2.06-3.96.85-.88,1.93-1.59,3.23-2.16,2.08-.91,4.19-1.2,6.33-.87,1.08.16,2.08.48,3.01.94,1.06.53,1.85,1.15,2.37,1.87.43.59.63,1.13.61,1.64-.02.51-.27.87-.73,1.08ZM866.19,591.9c.56-.24,1.11-.49,1.67-.73.7-.31.86-.73.48-1.27-.35-.49-.8-.81-1.36-.97-.56-.16-1.11-.12-1.66.12-.62.27-.96.68-1.03,1.23-.07.52.04.97.31,1.35.19.27.41.43.65.47.24.04.55-.03.95-.2Z" fill="#60bec3"/>
    <path d="M880.55,578.94c.65-.31,1.09-.46,1.32-.44.23.02.48.21.75.59.24.33.49.43.75.31.11-.05.34-.39.7-1.02.27-.48.69-.98,1.27-1.49.58-.52,1.15-.91,1.72-1.19,1.34-.66,2.82-.86,4.45-.61,1.24.19,2.42.62,3.54,1.3,1.18.71,2.16,1.57,2.96,2.61,1.7,2.21,2.23,4.48,1.54,6.82-.52,1.82-1.67,3.18-3.45,4.07-.91.45-1.99.74-3.22.87-.25.02-.43.07-.55.12-.32.16-.28.5.13,1.03.54.7,1.22,1.06,2.03,1.09.76.03,1.22.07,1.4.12.18.05.37.19.55.43.42.53.37,1.11-.12,1.76-.5.64-1.41,1.29-2.73,1.94-2.35,1.15-4.73,1.76-7.1,1.83-1.21.04-2.04-.23-2.48-.81-.2-.27-.29-.5-.26-.71.03-.2.19-.47.46-.81.4-.48.45-1.03.15-1.65-.3-.62-1.43-2.28-3.36-4.98-1.71-2.17-2.72-3.36-3.03-3.57-.11-.07-.21-.1-.31-.09-.1.01-.41.09-.91.22-.39.11-.76.1-1.14,0-.37-.11-.66-.32-.88-.61-.26-.36-.34-.75-.23-1.16.11-.41.4-.91.89-1.48,1.92-2.22,3.64-3.71,5.16-4.46ZM885.87,583.24c.83,1.26,1.67,2.52,2.51,3.78.1.16.21.31.32.45.21.27.52.43.94.45.42.03.87-.08,1.35-.31,1.48-.73,1.44-2.09-.08-4.1-.99-1.3-1.98-2.06-3-2.29-.63-.14-1.21-.08-1.74.18-.76.37-.86.98-.3,1.85Z" fill="#60bec3"/>
    <path d="M903.39,568.38c1.81,2.36,3.65,4.71,5.51,7.05,1.19,1.5,2.39,1.93,3.58,1.28.3-.16.54-.39.71-.69.17-.3.23-.58.18-.85-.11-.54-.73-1.52-1.87-2.95-1.12-1.41-1.94-2.35-2.46-2.81-.21-.19-.41-.31-.59-.36-.18-.04-.46-.05-.85-.03-.79.06-1.34-.12-1.64-.51-.42-.54-.2-1.18.64-1.93,1.59-1.43,3.3-2.65,5.13-3.66,1.02-.57,1.89-.39,2.61.52.08.09.22.29.44.59.31.42.69.93,1.15,1.53,1.51,1.89,3.03,3.77,4.56,5.64.24.29.75.39,1.53.29.66-.08,1.16.07,1.48.46.63.76.05,1.97-1.78,3.62-1.07.97-2.21,1.79-3.41,2.46-.49.28-.87.41-1.13.42-.26,0-.52-.12-.77-.38-.49-.5-.9-.66-1.24-.47-.12.07-.22.15-.28.26-.07.1-.24.45-.52,1.04-.56,1.16-1.45,2.07-2.65,2.72-2,1.08-3.81,1.35-5.4.83-1.34-.44-2.77-1.61-4.27-3.53-.56-.71-1.03-1.33-1.41-1.84-.23-.3-.39-.5-.47-.6-.58-.75-1.09-1.26-1.52-1.53-.43-.27-.94-.4-1.52-.38-.54.03-.91.03-1.1-.02-.19-.05-.35-.17-.49-.35-.5-.67-.24-1.42.79-2.25,1.75-1.43,3.64-2.67,5.65-3.74.61-.32,1.08-.27,1.41.17Z" fill="#60bec3"/>
    <path d="M922.63,556.67c.52-.31.89-.43,1.11-.37.22.06.64.41,1.29,1.04.35.34.65.44.91.29.2-.12.28-.35.26-.7-.07-1.52.53-2.66,1.79-3.42.89-.54,1.82-.73,2.79-.58.47.08.95.25,1.44.53.49.27.88.58,1.17.93.33.39.56.86.69,1.41.13.55.14,1.05.02,1.53-.2.89-.75,1.62-1.67,2.17-.5.3-.99.48-1.45.54-.47.05-1.17.02-2.1-.12-.35-.05-.62-.03-.8.08-.28.16-.35.41-.21.72.14.31.55.9,1.26,1.75,1.06,1.27,1.83,2.1,2.33,2.49.28.21.52.32.73.35.21.02.55-.04,1.04-.18,1.08-.31,1.86-.19,2.34.37.29.34.4.73.33,1.15-.07.43-.31.83-.71,1.2-.81.74-2.14,1.67-4.01,2.78-1.78,1.05-3.25,1.71-4.39,1.99-1.03.25-1.79.07-2.27-.51-.37-.44-.39-1.01-.07-1.7.16-.33.24-.59.24-.79,0-.2-.07-.42-.22-.67-.48-.86-1.57-2.33-3.27-4.42-.31-.38-.58-.63-.82-.74-.23-.11-.54-.13-.93-.06-.9.17-1.54.03-1.9-.43-.33-.41-.36-.9-.11-1.48.26-.57.84-1.33,1.76-2.29,1.22-1.27,2.36-2.23,3.42-2.87Z" fill="#60bec3"/>
    <path d="M952.18,549.14c.4,1.47.79,2.94,1.19,4.41.19.75.29,1.28.28,1.59-.01.31-.13.54-.35.68-.21.14-.47.19-.77.14-.19-.03-.75-.23-1.68-.6-.93-.37-1.72-.72-2.4-1.04-1.7-.8-3.39-1.61-5.07-2.43-.7-.34-1.19-.42-1.48-.24-.31.2-.29.52.06.98.76,1.02,1.5,1.94,2.21,2.76.74.85,1.29,1.4,1.65,1.64.23.14.43.21.61.22.18.01.61-.03,1.29-.14.44-.07.81.07,1.11.41.81.91-.16,2.27-2.96,4.05-2.36,1.5-3.94,1.79-4.72.89-.2-.23-.28-.44-.25-.62.03-.18.21-.53.54-1.06.21-.33.29-.63.21-.92-.07-.28-.34-.76-.79-1.43-.48-.72-1.33-1.85-2.53-3.41-1.2-1.56-2.25-2.89-3.16-3.97-1.13-1.36-2.01-2.21-2.65-2.54-.22-.11-.43-.18-.61-.19-.18-.02-.48,0-.9.06-.92.14-1.56-.02-1.93-.48-.24-.29-.33-.64-.27-1.04.06-.4.26-.78.6-1.14.34-.37.82-.81,1.47-1.33.64-.52,1.2-.93,1.69-1.23,1.22-.76,2.15-1.22,2.8-1.36.32-.07.6-.08.86-.03.26.05.7.21,1.33.48,2.3.96,4.62,1.91,6.94,2.84.76.31,1.26.48,1.48.51.22.04.44-.02.66-.16.19-.12.3-.3.34-.51.04-.22.02-.56-.07-1.03-.3-1.56-.6-3.13-.9-4.69-.13-.6-.21-.98-.24-1.16-.24-1.12-.24-1.97-.03-2.54.27-.73,1.15-1.59,2.63-2.6,2.61-1.76,4.34-2.13,5.24-1.09.2.23.32.46.34.67.02.21-.04.52-.17.94-.17.58-.09,1.17.26,1.78.76,1.26,1.84,2.7,3.25,4.29,1.82,2.05,3.54,3.77,5.16,5.15.4.34.72.53.96.59.24.05.72.05,1.45-.02.51-.04.91.09,1.2.41.51.56.45,1.25-.21,2.09-.33.44-.72.85-1.18,1.24-.46.38-1.2.93-2.23,1.65-1.58,1.09-2.86,1.8-3.82,2.14-1.07.37-1.84.29-2.31-.23-.18-.19-.26-.39-.26-.59,0-.2.09-.63.27-1.28.09-.33-.03-.77-.38-1.32-.34-.54-1.04-1.4-2.06-2.57-.57-.65-.98-1.05-1.23-1.21-.25-.16-.49-.16-.71,0-.26.18-.38.5-.35.98.03.48.21,1.35.54,2.61Z" fill="#60bec3"/>
    <path d="M965.13,528.78c1.56-1.13,3.19-1.75,4.9-1.85.91-.05,1.69.08,2.35.39.66.31,1.38.87,2.15,1.71.53.59,1.07,1.18,1.6,1.77,1.13,1.21,1.97,1.92,2.51,2.13.26.1.46.14.59.11.13-.02.36-.12.68-.3.32-.18.62-.12.89.16.36.37.56.89.6,1.55.04.66-.08,1.34-.36,2.02-.34.85-.88,1.55-1.62,2.1-.94.71-1.96.98-3.05.83-.38-.06-.66-.03-.82.09-.18.13-.33.41-.44.82-.37,1.24-1.13,2.28-2.29,3.12-1.2.87-2.38,1.35-3.54,1.44-.76.06-1.5-.05-2.22-.32-.72-.27-1.32-.66-1.79-1.18-.76-.83-1.04-1.83-.85-3.02.29-1.86,1.63-3.63,3.98-5.35.52-.38.81-.67.86-.86.05-.19-.07-.45-.38-.78-.77-.84-1.42-1.37-1.96-1.61-.54-.23-1.03-.19-1.49.14-.27.2-.45.44-.53.74-.08.3-.11.75-.08,1.36.1,1.59-.28,2.7-1.17,3.33-.45.32-.92.46-1.41.43-.49-.03-.91-.24-1.24-.61-.34-.38-.51-.89-.5-1.53.01-.63.19-1.31.53-2.02.96-1.93,2.33-3.54,4.1-4.82ZM970.48,536.32c-.4.29-.61.68-.65,1.18-.03.5.13.94.5,1.34.35.38.74.61,1.16.69.43.08.81,0,1.16-.26.73-.53.59-1.33-.4-2.39-.4-.43-.72-.69-.97-.76-.24-.07-.51,0-.81.19Z" fill="#60bec3"/>
    <path d="M984.95,507.81c3.29,3.51,6.64,7,10.06,10.45.58.59.99.95,1.21,1.07.22.12.54.15.95.1.49-.06.86-.07,1.11-.01.25.06.47.18.68.39.6.6.39,1.63-.67,3.07-.96,1.3-2.06,2.45-3.31,3.46-.28.22-.49.33-.65.33-.15,0-.38-.14-.68-.39-.43-.35-.77-.42-1.04-.21-.15.12-.26.42-.35.89-.26,1.34-.93,2.44-2.03,3.3-1.36,1.07-3.02,1.59-4.97,1.55-1.16-.03-2.27-.25-3.34-.64-1.4-.5-2.54-1.22-3.42-2.15-1.03-1.1-1.68-2.42-1.94-3.97-.25-1.43-.06-2.81.55-4.15.52-1.12,1.21-2.01,2.08-2.69,1-.78,2.08-1.28,3.25-1.5.19-.04.32-.09.4-.15.27-.22.1-.66-.52-1.32-.27-.29-.55-.45-.84-.48-.29-.03-.68.05-1.17.24-.68.27-1.21.21-1.57-.18-.53-.57-.31-1.5.63-2.79,1.67-2.27,2.86-3.71,3.59-4.3.72-.58,1.38-.56,1.97.07ZM983.5,519.17c-.56.44-.75,1.06-.58,1.85.23,1.06.9,2.16,2,3.32,1,1.05,1.98,1.67,2.92,1.86.68.14,1.28,0,1.8-.41.56-.45.69-1.06.38-1.84-.31-.78-1.09-1.81-2.33-3.1-1.14-1.18-2.04-1.85-2.71-2-.53-.12-1.02-.02-1.48.32Z" fill="#60bec3"/>
    <path d="M1009.16,500.78c1.38,1.24,2.77,2.48,4.17,3.72.32.28.6.45.83.51.23.06.76.1,1.58.13.24,0,.48.12.7.33.51.48.54,1.1.11,1.87-.44.77-1.48,1.89-3.13,3.37-1.12,1-2.02,1.62-2.67,1.85-.68.24-1.23.16-1.66-.26-.15-.15-.24-.28-.26-.39-.02-.11-.04-.43-.04-.94,0-.6-.9-1.77-2.69-3.53-1.04-1.02-1.93-1.66-2.69-1.93-.61-.21-1.2-.07-1.77.43-.55.47-.77.96-.65,1.46.11.5.59,1.17,1.44,2.01.74.74,1.49,1.47,2.24,2.21.45.44.78.71,1.01.82.23.11.76.25,1.58.41.23.05.43.17.6.34.45.44.44,1.05-.02,1.85-.47.79-1.42,1.82-2.88,3.06-2.33,1.98-3.95,2.53-4.82,1.67-.18-.18-.28-.35-.31-.5-.02-.15.01-.43.11-.83.07-.33.05-.61-.08-.84-.13-.23-.53-.73-1.2-1.49-.8-.91-1.66-1.83-2.59-2.77-.51-.52-.89-.82-1.14-.92-.25-.09-.69-.08-1.34.04-.56.09-.98,0-1.27-.3-.29-.3-.39-.67-.28-1.11.11-.44.47-1.18,1.09-2.23.55-.92,1.1-1.79,1.67-2.58.56-.8.98-1.31,1.25-1.54.25-.21.54-.3.86-.28.33.02.61.15.83.37.02.02.11.12.26.29.05.07.1.12.14.17.35.36.7.4,1.02.12.2-.17.27-.49.21-.97-.21-1.54.35-2.88,1.67-4.04,1.02-.89,2.13-1.41,3.35-1.56.86-.1,1.62,0,2.29.29.67.29,1.5.87,2.47,1.73Z" fill="#60bec3"/>
    <path d="M1023.98,490.84c-1.81,1.74-3.63,3.48-5.47,5.2-.24.23-.26.44-.06.63.5.47,1.24.65,2.24.55.99-.11,1.81-.46,2.44-1.06.37-.36.72-.82,1.03-1.38.31-.57.51-1.09.59-1.56.08-.42.19-.71.35-.86.2-.19.52-.27.96-.23.44.04.79.18,1.05.42.56.51.75,1.34.57,2.49-.3,2.03-1.27,3.83-2.9,5.37-1.65,1.56-3.52,2.42-5.59,2.59-1.01.07-2.02-.03-3.03-.32-1.33-.39-2.48-1.04-3.42-1.96-1.27-1.23-2-2.71-2.2-4.42-.17-1.49.06-2.93.7-4.33.48-1.05,1.18-2.01,2.1-2.87,1.47-1.38,3.12-2.16,4.95-2.36.92-.1,1.82-.04,2.69.19,1,.26,1.8.67,2.41,1.24.5.46.8.94.91,1.44.11.5,0,.9-.33,1.22ZM1016.68,493.73c.39-.37.79-.74,1.18-1.11.5-.47.52-.92.07-1.34-.41-.39-.86-.6-1.36-.62-.5-.02-.94.15-1.33.52-.44.41-.61.89-.53,1.44.07.52.27.93.59,1.23.23.22.44.32.65.3.2-.02.45-.16.73-.42Z" fill="#60bec3"/>
    <path d="M1024.1,478.73c.37-.37,1.06-.9,2.07-1.58.2-.14.36-.27.47-.38.13-.13.3-.44.53-.93.1-.23.21-.41.33-.53.34-.34.9-.48,1.7-.42.64.05,1.26.18,1.86.39.6.21,1.06.46,1.38.75.31.28.46.62.46,1.01,0,.4-.16.75-.47,1.07-.26.26-.55.44-.89.53-.33.09-.95.16-1.84.2-.95.04-1.58.22-1.89.53-.21.21-.31.46-.31.76,0,.3.11.55.33.74.37.35,1.08.32,2.11-.08,1.84-.73,3.43-1.13,4.79-1.18,1.15-.05,2.15.31,3.01,1.07,1.08.96,1.55,2.23,1.37,3.8-.14,1.36-.78,2.62-1.92,3.78-.29.3-.88.79-1.76,1.48-.82.66-1.27,1.03-1.37,1.12-.1.1-.2.22-.31.37-.19.25-.33.42-.43.52-.36.36-.73.55-1.13.58-.6.05-1.35-.07-2.23-.37-.89-.3-1.55-.65-1.99-1.05-.71-.65-.79-1.25-.24-1.78.21-.21.48-.34.8-.38.32-.04,1.08-.06,2.26-.07.65,0,1.14-.04,1.48-.13.33-.09.62-.25.85-.48.25-.25.38-.51.4-.78.01-.27-.09-.51-.32-.71-.35-.32-.96-.31-1.82,0-1.82.66-3.34.95-4.52.89-1.19-.06-2.2-.49-3.04-1.27-.91-.85-1.41-1.85-1.51-3.01-.15-1.65.46-3.14,1.8-4.47Z" fill="#60bec3"/>
    <path d="M1034.78,467.76c.36-.38,1.02-.92,1.99-1.62.19-.15.34-.28.45-.39.12-.13.28-.44.49-.94.09-.24.2-.42.31-.54.32-.35.88-.5,1.66-.45.63.03,1.24.15,1.84.35.6.2,1.06.44,1.38.72.31.27.47.61.48,1,.01.4-.13.76-.43,1.08-.25.27-.53.45-.86.55-.32.09-.93.18-1.81.24-.93.06-1.55.25-1.85.57-.2.21-.29.47-.28.77.01.3.13.54.34.74.38.34,1.07.3,2.07-.13,1.79-.77,3.35-1.2,4.69-1.28,1.13-.07,2.13.26,2.99,1.01,1.09.94,1.59,2.19,1.46,3.77-.1,1.36-.7,2.64-1.79,3.82-.28.3-.84.81-1.69,1.52-.79.68-1.23,1.06-1.32,1.15-.09.1-.19.23-.29.38-.18.25-.32.43-.41.53-.34.36-.71.57-1.09.61-.59.06-1.33-.04-2.21-.32-.88-.28-1.54-.62-1.99-1.01-.72-.64-.81-1.23-.29-1.78.2-.21.46-.35.78-.4.32-.05,1.06-.09,2.23-.11.64-.01,1.13-.07,1.45-.16.33-.09.6-.26.82-.5.24-.25.36-.52.37-.79,0-.27-.1-.51-.33-.71-.35-.31-.95-.29-1.79.05-1.78.7-3.26,1.02-4.43.98-1.17-.04-2.18-.44-3.03-1.21-.92-.83-1.44-1.82-1.57-2.97-.19-1.64.37-3.14,1.65-4.5Z" fill="#60bec3"/>
  </g>
</svg>